<?xml version="1.0" standalone="no"?>
<!DOCTYPE svg PUBLIC "-//W3C//DTD SVG 20010904//EN"
 "http://www.w3.org/TR/2001/REC-SVG-20010904/DTD/svg10.dtd">
<svg version="1.0" xmlns="http://www.w3.org/2000/svg"
 width="840.000000pt" height="840.000000pt" viewBox="0 0 840.000000 840.000000"
 preserveAspectRatio="xMidYMid meet">
<metadata>
Created by potrace 1.10, written by Peter Selinger 2001-2011
</metadata>
<g transform="translate(0.000000,840.000000) scale(0.100000,-0.100000)"
fill="#305ba2" stroke="none">
<path d="M2453 8138 l-42 -42 -39 22 c-33 18 -56 21 -163 23 -68 1 -160 5
-205 9 -45 4 -123 4 -175 -1 -124 -10 -212 -38 -398 -128 -18 -9 -28 -27 -36
-63 -3 -15 -15 -32 -26 -39 -17 -9 -25 -7 -44 11 -21 19 -29 21 -96 14 -108
-10 -171 -36 -205 -85 -15 -22 -53 -62 -85 -90 -43 -37 -66 -68 -93 -124 -37
-78 -56 -95 -103 -95 -32 0 -53 -26 -64 -80 -17 -87 -43 -168 -62 -200 -12
-19 -32 -55 -43 -80 -25 -52 -61 -93 -75 -85 -5 4 -14 26 -20 51 -6 24 -15 47
-20 50 -5 3 -110 8 -234 11 l-225 5 0 -738 0 -739 51 -3 c29 -2 59 -7 68 -12
27 -14 51 -100 62 -216 5 -60 12 -139 16 -176 7 -80 -3 -98 -55 -98 -20 0 -60
-6 -89 -12 l-53 -13 0 -602 c0 -332 2 -603 5 -603 3 0 29 16 57 36 29 19 82
52 118 71 92 51 169 103 205 139 34 35 110 77 127 72 7 -3 10 -32 9 -79 -2
-66 2 -80 30 -134 17 -33 51 -99 75 -146 23 -48 50 -89 58 -92 9 -4 16 -12 16
-19 0 -14 56 -75 111 -122 64 -55 264 -202 319 -236 30 -18 58 -37 61 -42 3
-5 32 -22 65 -37 59 -29 98 -62 142 -120 14 -19 28 -28 38 -24 9 3 27 -5 42
-20 15 -13 41 -32 57 -40 17 -8 41 -27 54 -41 14 -14 34 -26 47 -26 12 0 28
-9 35 -21 12 -18 18 -19 43 -9 33 12 49 3 69 -39 10 -22 20 -27 64 -31 41 -4
56 -11 73 -32 12 -16 17 -28 11 -28 -6 0 -11 -4 -11 -10 0 -5 13 -7 28 -4 19
4 32 1 41 -10 8 -9 24 -16 36 -16 12 0 28 -7 36 -16 7 -9 29 -23 48 -32 28
-13 37 -24 39 -47 4 -35 26 -55 59 -55 17 0 23 -5 21 -17 -2 -11 7 -19 28 -24
16 -5 41 -20 54 -34 13 -14 31 -25 40 -25 9 0 41 -18 70 -40 29 -22 61 -40 69
-40 9 0 31 -9 49 -20 105 -64 333 -101 462 -75 l35 7 -34 -22 c-31 -19 -43
-21 -160 -17 -136 5 -199 15 -246 41 -16 9 -36 16 -43 16 -17 0 -114 31 -127
40 -5 4 -31 11 -57 14 -38 6 -48 4 -48 -7 0 -19 12 -28 95 -70 62 -32 145 -61
270 -97 36 -10 170 -10 388 1 17 1 43 15 63 34 38 36 44 77 20 136 -17 43 -6
79 26 80 46 2 63 -4 107 -41 25 -21 56 -41 69 -45 12 -3 22 -10 22 -14 0 -5
24 -19 53 -31 28 -12 59 -28 67 -35 26 -21 70 -27 76 -10 7 17 -54 98 -111
147 -56 49 -105 100 -105 109 0 11 48 -18 97 -58 21 -18 79 -62 128 -99 50
-37 96 -71 103 -77 8 -6 12 -6 12 2 0 7 -58 69 -130 138 -71 69 -133 135 -136
147 -5 16 4 30 47 68 29 27 62 48 73 48 41 0 99 22 121 46 16 17 33 24 59 24
32 0 38 4 53 37 14 28 26 39 48 43 18 3 34 14 40 28 5 12 14 22 18 22 5 0 26
18 48 40 22 22 53 47 69 55 16 8 50 29 77 47 51 35 91 42 393 68 153 14 197
27 202 61 2 17 12 25 36 30 42 8 51 18 30 30 -31 17 -48 40 -48 63 0 20 7 25
42 30 23 4 61 15 83 25 52 23 195 29 195 8 0 -7 -20 -33 -45 -57 -50 -49 -55
-60 -24 -60 17 0 20 -4 15 -28 -4 -17 -1 -35 7 -46 13 -17 34 -20 197 -26 196
-8 192 -8 290 21 50 15 77 31 118 69 49 47 63 70 42 70 -5 0 -13 -6 -17 -14
-10 -17 -80 -52 -153 -78 -40 -14 -96 -21 -207 -25 -138 -6 -153 -4 -159 11
-5 12 4 28 25 50 32 33 71 100 71 123 0 7 10 15 23 17 62 14 413 37 433 29 9
-3 19 -15 23 -26 7 -20 9 -19 22 8 12 25 24 33 79 46 99 24 140 45 140 68 0
20 5 21 83 17 58 -3 100 -11 142 -29 33 -13 77 -27 98 -31 33 -6 37 -5 37 14
0 15 6 20 25 20 26 0 35 -15 13 -22 -7 -3 -9 -12 -5 -22 6 -15 15 -17 42 -13
19 3 37 2 40 -2 7 -13 52 -19 66 -10 8 4 23 -1 37 -12 14 -10 39 -19 56 -19
36 0 106 -32 119 -55 4 -8 17 -15 27 -15 10 0 21 -4 24 -9 3 -5 25 -13 49 -19
24 -6 56 -23 72 -38 15 -14 42 -27 59 -29 45 -3 46 -4 46 -20 0 -8 13 -29 28
-47 16 -18 39 -53 51 -78 13 -25 26 -47 30 -50 11 -8 45 -63 58 -92 10 -24 9
-29 -10 -43 -12 -8 -32 -15 -45 -15 -13 0 -31 -4 -40 -9 -9 -5 -78 -12 -152
-16 -74 -4 -138 -9 -142 -11 -4 -3 -16 1 -27 8 -17 10 -23 10 -36 -2 -13 -14
-11 -22 15 -75 17 -35 30 -76 30 -98 l0 -38 38 8 c64 14 206 8 242 -11 18 -9
39 -16 47 -16 7 0 25 -7 38 -16 28 -19 73 -12 82 12 3 9 -4 37 -17 64 -15 33
-20 57 -16 75 9 35 25 28 41 -19 9 -24 41 -67 86 -112 66 -67 79 -94 44 -94
-8 0 -19 -9 -25 -20 -9 -17 -7 -21 7 -26 10 -4 77 -35 150 -71 103 -50 139
-73 163 -103 39 -50 56 -50 63 -3 8 45 -11 69 -81 103 -26 12 -58 33 -72 46
-14 12 -46 32 -72 43 -36 15 -48 26 -48 42 0 21 3 21 63 14 78 -9 116 -11 247
-13 107 -2 124 -13 45 -30 -30 -6 -40 -13 -40 -27 0 -15 6 -19 25 -17 14 2 52
-2 86 -8 51 -10 68 -9 112 5 50 17 52 18 52 55 0 37 -22 61 -35 40 -10 -17
-38 -11 -99 20 -32 17 -65 30 -73 30 -10 0 -13 6 -9 16 4 9 -4 28 -19 46 -14
16 -25 36 -25 44 0 7 35 48 77 91 75 75 77 78 79 128 2 76 45 175 77 175 6 0
26 17 45 37 37 41 57 106 47 155 -4 15 -2 35 3 45 11 19 -7 155 -27 206 -9 22
-17 27 -45 27 -19 0 -38 -5 -41 -10 -4 -6 -10 -8 -15 -5 -4 3 -27 7 -51 10
-24 3 -51 12 -59 20 -20 18 -44 19 -72 4 -18 -9 -24 -8 -37 10 -14 19 -20 20
-47 9 -39 -14 -97 5 -92 31 4 20 106 27 152 10 17 -6 63 -15 101 -20 39 -4
112 -16 163 -25 81 -16 94 -16 106 -4 11 11 16 60 20 190 5 164 10 282 36 810
6 118 12 271 15 340 9 252 26 633 40 935 9 171 17 391 18 490 2 161 0 183 -17
211 -38 63 -27 61 -526 68 -250 4 -597 9 -770 11 -173 2 -524 7 -780 11 -256
4 -472 10 -482 15 -9 5 -19 27 -23 48 -8 49 -25 65 -63 57 -15 -4 -86 0 -157
8 -146 17 -349 29 -830 51 -181 8 -351 17 -376 20 -36 4 -52 1 -70 -14 l-24
-19 0 -234 0 -233 39 -80 c21 -44 58 -127 81 -185 23 -58 59 -140 79 -183 64
-135 79 -199 80 -324 1 -132 -5 -144 -57 -113 -33 19 -45 21 -113 15 -79 -8
-114 -22 -184 -76 -19 -15 -46 -30 -60 -34 -28 -8 -110 -83 -110 -101 0 -6 -9
-14 -21 -17 -13 -4 -19 -12 -17 -24 3 -15 12 -18 58 -16 77 2 153 16 181 34
37 24 123 49 167 49 23 0 45 6 52 15 20 25 35 18 81 -37 24 -29 58 -68 74 -88
17 -19 59 -73 95 -120 35 -47 103 -126 150 -176 97 -102 109 -133 88 -226 -14
-60 -7 -69 70 -85 72 -14 218 -51 257 -65 17 -6 56 -15 88 -21 l57 -11 0 -195
c0 -175 2 -197 18 -215 35 -39 45 -80 29 -112 -20 -39 -21 -150 -1 -158 19 -7
18 -26 -1 -26 -8 0 -15 -6 -15 -12 0 -8 -3 -9 -8 -3 -4 6 -19 15 -33 22 -16 7
-29 24 -35 44 -11 37 -37 46 -42 14 -5 -24 -41 -65 -58 -65 -7 0 -10 -8 -7
-19 3 -10 -2 -30 -11 -42 -8 -13 -18 -43 -22 -65 l-6 -41 72 -17 c40 -9 79
-16 87 -16 23 0 113 -31 119 -42 13 -21 -7 -54 -43 -70 -51 -22 -160 -31 -203
-17 -28 10 -35 10 -45 -5 -19 -25 -68 -37 -205 -47 -236 -17 -214 -19 -221 21
-6 35 -9 33 -24 -16 -5 -16 -7 -16 -23 0 -12 10 -36 16 -69 16 -39 0 -54 5
-71 23 -12 13 -22 28 -22 35 0 6 -27 -4 -59 -23 -33 -19 -72 -35 -86 -35 -27
0 -129 51 -140 70 -12 19 -104 57 -117 48 -24 -15 -50 -8 -80 22 -25 25 -27
31 -13 36 24 10 43 55 38 91 -4 24 0 34 16 42 23 13 29 59 9 79 -9 9 -8 20 1
49 9 28 10 46 2 65 -6 15 -8 35 -5 43 4 8 -1 26 -10 40 -9 13 -16 44 -16 68 0
30 -7 53 -21 71 -17 21 -20 35 -14 64 3 20 9 60 11 89 l6 51 -36 -8 c-24 -5
-43 -3 -62 6 -49 26 -110 10 -99 -26 4 -11 -1 -23 -13 -32 -10 -7 -21 -21 -25
-30 -6 -16 -38 -16 -35 0 3 26 -16 42 -57 47 -5 1 -18 5 -27 9 -33 15 -62 2
-82 -37 -12 -22 -30 -40 -43 -43 -28 -7 -37 -1 -38 29 -1 12 -2 39 -3 60 -2
35 -4 38 -29 35 -19 -2 -36 -16 -56 -45 -32 -48 -71 -60 -65 -20 3 19 -1 22
-32 21 -19 0 -42 -2 -50 -5 -18 -5 -17 6 4 81 14 50 14 63 -1 144 -13 67 -19
84 -26 69 -6 -15 -16 -18 -43 -15 -28 3 -34 8 -34 27 0 13 -10 30 -25 39 -32
21 -32 49 1 75 36 28 39 27 61 -16 24 -50 43 -54 43 -10 0 35 -21 64 -39 52
-11 -6 -51 29 -51 46 0 6 9 13 19 16 17 4 19 13 18 73 -2 52 2 72 16 87 9 11
17 27 17 35 0 9 7 21 15 28 8 7 15 21 15 32 0 10 6 21 13 24 19 7 15 115 -4
126 -8 4 -31 14 -53 23 -38 15 -38 16 -32 56 10 62 28 89 113 170 173 164 207
230 137 264 -26 12 -36 25 -44 58 -18 71 -27 84 -75 107 -51 25 -51 26 -90
150 -14 47 -33 95 -41 108 -22 34 -52 62 -66 62 -9 0 -9 3 0 12 7 7 12 42 12
86 0 40 5 82 10 92 6 10 13 60 17 110 7 102 1 115 -50 104 -24 -5 -29 -2 -42
30 -20 48 -19 102 4 134 10 15 21 48 25 74 9 57 21 67 48 39 16 -17 23 -20 34
-10 18 15 18 28 -2 50 -32 36 -12 48 81 47 47 0 88 -5 91 -9 3 -5 25 -9 50 -9
29 0 55 -7 72 -20 23 -17 32 -18 67 -8 53 14 109 12 145 -7 16 -8 40 -15 53
-15 13 0 34 -12 48 -26 35 -37 80 -62 113 -62 16 0 33 -6 38 -16 14 -25 34
-19 48 14 15 36 7 100 -15 112 -8 5 -20 18 -26 29 -16 30 -39 125 -39 161 0
30 -22 57 -46 58 -7 0 -28 16 -47 35 -19 19 -44 35 -54 35 -37 0 -57 36 -58
105 -1 53 -6 69 -30 102 -47 62 -115 123 -139 123 -12 0 -27 5 -32 10 -12 12
-100 35 -164 43 -25 4 -73 18 -107 32 -37 15 -82 25 -110 25 -29 0 -63 8 -86
20 -20 11 -52 20 -71 20 -55 0 -174 62 -240 124 -33 31 -64 56 -70 56 -6 0
-30 -19 -53 -42z m2779 -1505 c4 -359 -1 -636 -12 -647 -7 -7 -17 -7 -31 2
-12 8 -33 11 -50 7 -43 -10 -99 12 -100 38 -4 112 4 244 17 258 8 9 14 36 14
62 0 38 4 48 23 58 32 17 87 71 81 81 -3 4 -16 8 -29 8 -29 0 -33 14 -34 120
0 41 -1 84 -3 95 -2 12 3 20 12 20 22 1 40 14 40 31 0 16 50 84 62 84 4 0 8
-98 10 -217z m948 96 c118 -5 402 -14 630 -19 228 -6 474 -15 545 -20 72 -5
247 -9 390 -10 143 0 270 -3 283 -6 31 -9 34 -30 22 -184 -6 -74 -15 -259 -20
-410 -5 -151 -12 -295 -15 -320 -3 -25 -10 -166 -15 -315 -5 -148 -14 -353
-19 -455 -5 -102 -18 -342 -27 -534 -14 -279 -20 -349 -32 -353 -15 -6 -217
21 -287 38 -22 5 -69 14 -105 19 -36 4 -96 14 -135 20 -38 6 -113 18 -165 26
-328 52 -441 70 -605 99 -44 7 -114 19 -155 25 -41 6 -95 16 -120 22 -25 6
-76 14 -115 18 -38 4 -95 12 -125 18 -30 6 -102 18 -160 27 -58 10 -139 23
-180 30 -41 7 -120 20 -175 30 -55 9 -136 24 -180 33 l-80 18 -3 224 c-2 124
1 349 7 500 6 151 14 544 17 873 6 507 9 601 22 613 12 13 57 14 301 9 157 -3
383 -10 501 -16z m-4173 -1066 c2 -6 -5 -14 -16 -18 -23 -7 -101 -80 -101 -95
0 -12 62 -13 76 -1 15 14 92 22 99 11 4 -6 15 -8 26 -5 23 7 24 2 5 -28 -7
-12 -16 -37 -19 -54 -7 -37 11 -53 61 -53 19 0 35 -8 45 -22 l15 -23 37 36
c30 30 37 44 42 91 4 40 9 55 19 51 19 -7 45 -80 38 -109 -3 -13 -3 -44 0 -68
6 -39 12 -47 48 -66 71 -37 124 -87 142 -135 10 -26 34 -59 57 -79 l40 -34 8
-113 c4 -66 4 -124 -2 -139 -8 -24 -19 -81 -33 -178 -8 -52 -43 -86 -139 -133
l-66 -32 -87 15 c-83 15 -119 26 -152 48 -8 5 -53 30 -100 56 -103 57 -165
113 -195 176 -12 26 -32 55 -44 65 -14 11 -27 40 -35 78 -8 33 -19 76 -26 95
-7 19 -18 51 -25 70 -32 88 -45 393 -20 454 17 40 77 111 109 128 47 26 186
34 193 11z m-328 -752 c13 -10 21 -24 19 -32 -3 -8 3 -25 13 -38 11 -13 19
-29 19 -37 0 -7 12 -26 26 -43 25 -30 72 -118 93 -174 6 -15 22 -32 35 -37 13
-5 27 -14 31 -19 3 -6 14 -11 24 -11 11 0 24 -12 31 -30 7 -18 29 -39 54 -53
35 -19 41 -28 44 -58 2 -23 -2 -40 -12 -48 -14 -12 -13 -17 5 -53 24 -47 22
-81 -6 -86 -42 -8 -38 -22 6 -22 25 0 54 -6 65 -14 19 -14 19 -15 -5 -40 -20
-21 -34 -26 -72 -26 -54 0 -79 -7 -79 -23 0 -6 -9 -21 -21 -33 l-21 -22 21
-47 c12 -26 21 -58 21 -70 0 -27 28 -85 41 -85 5 0 9 -11 9 -24 0 -24 -22 -39
-60 -40 -10 -1 -16 -14 -18 -41 -2 -33 -9 -45 -37 -63 -44 -31 -66 -25 -89 23
-11 22 -33 50 -48 63 -19 16 -25 28 -19 36 5 6 11 41 13 78 4 66 3 67 -22 70
-34 4 -33 32 3 36 32 4 35 17 7 32 -11 6 -20 20 -20 31 0 17 -6 19 -47 18 -27
-1 -52 0 -58 1 -28 7 -43 -4 -63 -45 -12 -25 -25 -45 -30 -45 -5 0 -21 13 -36
29 -27 28 -27 30 -12 59 8 16 25 32 37 35 17 5 20 11 15 31 -5 21 -2 25 24 31
17 4 30 11 30 17 0 5 14 23 31 39 l31 29 -26 11 c-17 8 -26 21 -28 43 -3 29
-6 31 -53 36 -43 4 -50 8 -53 28 -2 14 8 36 28 59 30 34 32 40 26 87 -4 28 -8
83 -9 121 -2 39 -7 88 -12 109 -6 33 -5 41 11 53 16 11 17 17 6 34 -7 11 -11
23 -8 27 3 5 1 14 -4 22 -7 11 2 25 33 52 47 41 80 47 116 19z m1675 -536
c-21 -16 -36 -15 -42 3 -2 7 5 12 17 12 11 0 23 5 27 12 6 9 9 9 12 -1 2 -7
-4 -19 -14 -26z m2049 -81 c21 -4 37 -12 37 -20 0 -7 14 -14 35 -16 26 -2 32
-6 26 -16 -7 -11 -16 -10 -48 7 -22 11 -42 19 -44 17 -2 -2 -34 -6 -71 -10
-62 -6 -68 -5 -68 12 0 10 3 22 7 25 8 9 76 9 126 1z m222 -44 c3 -5 29 -10
56 -10 56 0 89 -13 89 -35 0 -21 -69 -20 -99 1 -13 10 -49 25 -80 35 l-56 18
42 0 c23 1 45 -3 48 -9z m311 -60 c-21 -4 -42 -13 -47 -21 -5 -9 -9 -10 -9 -2
0 6 -15 15 -32 19 -50 11 -11 20 64 15 59 -4 61 -5 24 -11z m166 -16 c21 -4
35 -11 32 -16 -3 -5 -13 -6 -23 -3 -9 2 -30 1 -46 -4 -32 -9 -75 2 -75 19 0
11 55 13 112 4z m175 -34 c8 0 12 -4 8 -10 -3 -5 -12 -7 -20 -3 -9 3 -22 0
-30 -7 -12 -10 -18 -10 -30 0 -22 18 -7 33 27 26 17 -3 37 -6 45 -6z m-4043
-49 c16 -16 25 -34 22 -40 -12 -19 -48 -12 -73 15 -19 20 -21 29 -12 40 17 21
32 17 63 -15z m4235 14 c2 -3 -4 -14 -14 -25 -17 -19 -28 -20 -87 -3 -10 2
-18 10 -18 18 0 7 8 16 18 19 18 5 93 -2 101 -9z m-314 -15 c4 -6 -5 -10 -20
-10 -15 0 -24 4 -20 10 3 6 12 10 20 10 8 0 17 -4 20 -10z m511 -27 c15 -10
36 -12 70 -8 37 5 54 3 69 -9 20 -16 20 -16 1 -31 -25 -19 -50 -19 -66 0 -12
14 -15 14 -31 -1 -23 -21 -47 -12 -55 21 -6 26 -28 33 -40 14 -4 -7 -23 -9
-52 -5 -42 6 -61 18 -62 40 0 13 142 -5 166 -21z m336 -49 c15 -8 44 -14 65
-14 106 0 156 -33 66 -43 -32 -3 -54 0 -70 10 -14 10 -41 14 -75 12 -31 -1
-68 4 -88 13 -19 8 -44 18 -55 23 -19 7 -19 7 -1 14 28 11 126 1 158 -15z
m330 -58 c24 -8 56 -16 71 -18 15 -2 26 -7 25 -13 -3 -10 -147 -9 -201 1 -45
9 -14 35 50 43 7 0 32 -5 55 -13z m180 -38 c-8 -8 -17 -8 -34 0 -22 10 -21 11
12 11 26 1 31 -2 22 -11z m-5930 -74 c33 -17 70 -18 86 -2 16 16 23 7 27 -34
1 -18 4 -40 6 -48 3 -11 -4 -15 -26 -15 -28 0 -30 -3 -30 -37 -1 -28 -7 -42
-28 -58 -33 -26 -33 -34 -5 -62 20 -20 21 -21 2 -35 -16 -12 -20 -12 -30 2
-17 23 -24 18 -17 -15 5 -29 5 -30 -34 -30 -42 0 -65 17 -77 56 -8 25 7 39 60
58 28 10 39 19 37 32 -3 34 -36 119 -54 139 -12 13 -16 29 -12 48 5 25 8 27
37 21 17 -3 43 -13 58 -20z m4115 -45 c13 -13 6 -39 -11 -39 -19 1 -48 28 -41
39 8 14 38 14 52 0z m-308 -38 c8 -6 10 -14 5 -22 -5 -8 -7 -24 -5 -36 3 -31
-26 -30 -62 3 -34 29 -30 51 10 57 15 2 30 5 33 5 3 1 11 -2 19 -7z m-3691
-95 c3 -12 -1 -17 -10 -14 -7 3 -15 13 -16 22 -3 12 1 17 10 14 7 -3 15 -13
16 -22z m-229 -25 c16 -10 6 -31 -15 -31 -8 0 -14 9 -14 20 0 22 7 25 29 11z
m3011 -6 c14 -8 38 -14 53 -15 50 0 25 -25 -29 -28 -55 -3 -68 3 -78 36 -6 17
-3 22 11 22 10 -1 29 -7 43 -15z m180 -39 c0 -14 -55 -30 -71 -20 -5 3 -9 12
-9 20 0 10 12 14 40 14 27 0 40 -4 40 -14z m2205 -37 c10 -15 -1 -23 -20 -15
-9 3 -13 10 -10 16 8 13 22 13 30 -1z m-2446 -33 l24 -13 -29 -7 c-16 -4 -37
-9 -46 -12 -13 -4 -18 0 -18 14 0 35 26 42 69 18z m-2819 -27 c0 -11 -4 -17
-10 -14 -5 3 -10 15 -10 26 0 11 5 17 10 14 6 -3 10 -15 10 -26z m3448 1 c-16
-24 -38 -34 -51 -21 -6 6 -1 12 17 17 14 3 26 10 26 15 0 5 5 9 10 9 6 0 5 -8
-2 -20z m2074 -15 c6 -14 8 -28 4 -32 -11 -12 -41 12 -44 36 -5 30 26 27 40
-4z m39 -127 c41 -30 44 -48 14 -76 l-26 -24 -34 23 c-39 27 -69 74 -61 96 8
20 68 10 107 -19z"/>
<path d="M5180 6730 c0 -11 5 -20 10 -20 6 0 10 9 10 20 0 11 -4 20 -10 20 -5
0 -10 -9 -10 -20z"/>
<path d="M5165 6648 c4 -13 8 -36 9 -52 0 -16 7 -31 14 -33 9 -4 12 11 12 51
0 50 -2 56 -21 56 -18 0 -20 -4 -14 -22z"/>
<path d="M5712 6107 c-6 -7 -14 -75 -18 -151 -7 -131 -6 -138 12 -134 17 3 20
11 40 106 9 44 42 20 83 -61 18 -36 33 -53 49 -55 30 -5 29 17 -7 82 l-30 53
30 22 c25 19 29 28 29 71 0 39 -4 52 -22 64 -28 20 -150 22 -166 3z m132 -49
c24 -34 1 -63 -50 -63 -35 0 -39 3 -42 28 -5 45 4 57 42 57 25 0 39 -7 50 -22z"/>
<path d="M5967 6113 c-3 -5 -8 -72 -12 -150 -5 -115 -4 -144 7 -148 7 -3 49
-6 93 -8 74 -2 80 -1 80 18 0 18 -8 20 -62 23 -70 3 -89 20 -77 67 7 28 7 28
84 29 49 1 55 3 58 24 3 20 0 22 -50 22 -66 0 -81 9 -76 46 3 28 5 29 66 32
46 2 65 7 69 18 3 9 0 20 -8 25 -17 11 -166 12 -172 2z"/>
<path d="M6254 6110 c-27 -11 -54 -53 -54 -86 0 -33 61 -94 95 -94 44 0 71
-50 43 -78 -22 -22 -65 -14 -91 18 -41 48 -71 40 -54 -16 12 -41 63 -74 112
-74 47 0 105 57 105 103 -1 50 -33 80 -122 116 -33 13 -37 45 -8 61 26 14 57
5 70 -21 11 -20 45 -26 55 -9 4 6 -3 25 -14 44 -26 42 -84 58 -137 36z"/>
<path d="M6468 6000 c-4 -224 -5 -215 17 -215 16 0 22 10 30 55 l11 55 44 3
c69 4 106 28 120 77 8 30 8 48 0 70 -22 59 -35 65 -132 65 l-88 0 -2 -110z
m161 35 c11 -11 13 -21 5 -42 -8 -25 -15 -28 -57 -31 -33 -2 -47 1 -48 10 -2
24 3 73 8 82 8 12 74 -1 92 -19z"/>
<path d="M6762 6098 c-6 -8 -12 -77 -14 -168 l-3 -155 99 -11 c106 -13 121
-11 130 13 11 27 -4 33 -74 33 -91 0 -100 4 -100 49 0 57 9 64 80 60 52 -3 65
-1 74 14 16 26 -7 37 -82 37 l-63 0 3 38 3 37 83 3 83 3 -3 27 -3 27 -101 3
c-74 2 -104 -1 -112 -10z"/>
<path d="M7118 6087 c-71 -44 -83 -70 -83 -174 0 -91 0 -92 33 -126 37 -38 82
-51 145 -40 28 4 45 16 69 45 l31 40 -22 21 -21 22 -35 -38 c-39 -43 -78 -49
-116 -18 -21 17 -24 27 -24 96 0 74 1 78 33 106 41 37 71 37 107 -1 31 -33 62
-39 72 -14 15 40 -62 104 -124 104 -15 0 -45 -11 -65 -23z"/>
<path d="M7368 6083 c-16 -20 7 -41 50 -45 l37 -3 0 -150 0 -150 30 0 30 0 5
137 c3 84 9 142 17 149 6 6 31 12 55 13 36 1 43 4 46 24 4 29 -1 30 -141 34
-89 3 -120 1 -129 -9z"/>
<path d="M5558 5608 c-8 -7 -18 -22 -21 -33 -3 -11 -15 -45 -27 -75 -12 -30
-26 -71 -32 -90 -5 -19 -14 -39 -19 -44 -17 -18 -9 -36 15 -36 18 0 27 8 35
30 8 26 15 30 45 30 40 0 76 -28 76 -59 0 -21 21 -33 38 -22 8 5 4 34 -13 104
-14 54 -25 106 -25 117 0 27 -31 90 -45 90 -6 0 -18 -6 -27 -12z m40 -148 c-5
-42 -57 -36 -58 6 0 6 10 24 22 39 l22 28 8 -24 c5 -13 8 -35 6 -49z"/>
<path d="M5739 5593 c0 -5 -2 -21 -3 -38 -2 -16 -7 -61 -10 -100 -12 -114 20
-165 102 -165 56 0 64 5 86 47 12 24 16 60 16 148 0 106 -2 116 -17 113 -15
-3 -19 -19 -26 -93 -12 -138 -16 -154 -38 -165 -26 -15 -56 -4 -65 23 -4 12
-6 70 -5 130 2 103 2 107 -18 107 -12 0 -21 -3 -22 -7z"/>
<path d="M5979 5574 c-16 -19 -3 -31 36 -36 l30 -3 -3 -131 c-3 -109 -1 -132
12 -137 25 -10 33 14 40 126 4 59 9 114 12 121 3 8 20 16 37 18 21 2 33 9 35
20 4 20 -12 25 -115 32 -56 4 -74 1 -84 -10z"/>
<path d="M6226 5498 c-4 -40 -7 -113 -9 -163 -2 -85 -1 -90 19 -93 19 -3 22 3
27 64 4 37 11 72 16 77 6 6 26 7 53 1 l43 -9 5 -70 c5 -67 6 -70 30 -70 l25 0
7 145 c7 154 5 180 -17 180 -20 0 -27 -15 -34 -74 -6 -50 -6 -51 -43 -54 -61
-5 -73 8 -73 75 0 52 -2 58 -22 61 -20 3 -22 -2 -27 -70z"/>
<path d="M6542 5509 c-18 -18 -34 -41 -37 -53 -22 -110 -15 -161 30 -213 31
-36 34 -38 100 -38 66 0 68 1 100 38 61 70 57 203 -7 266 -29 28 -38 31 -93
31 -55 0 -64 -3 -93 -31z m143 -42 c53 -45 42 -173 -17 -203 -29 -15 -34 -15
-65 0 -42 20 -56 55 -50 125 3 44 9 59 31 78 34 29 68 29 101 0z"/>
<path d="M6851 5506 c-7 -9 -14 -75 -18 -171 l-6 -157 29 4 c28 3 29 5 34 68
4 56 8 65 26 68 28 4 59 -32 98 -115 18 -39 60 -63 78 -45 12 12 -1 42 -52
130 -19 31 -19 33 -2 39 65 23 85 108 37 153 -38 36 -201 54 -224 26z m167
-62 c27 -18 29 -50 3 -64 -22 -11 -80 -13 -105 -4 -19 7 -22 64 -4 82 14 14
72 6 106 -14z"/>
<path d="M7167 5483 c-3 -10 -7 -88 -9 -173 l-3 -155 30 0 c25 0 30 4 31 25 0
14 2 90 5 170 l4 145 -27 3 c-18 2 -28 -2 -31 -15z"/>
<path d="M7283 5474 c-8 -22 16 -44 48 -44 15 0 32 -6 36 -14 4 -8 6 -72 3
-143 -3 -70 -4 -134 -1 -141 2 -8 15 -12 30 -10 l26 3 10 135 c6 74 14 141 18
148 5 6 28 12 51 12 35 0 45 4 49 20 3 10 0 23 -7 28 -6 5 -66 12 -134 15
-103 5 -124 4 -129 -9z"/>
<path d="M7580 5451 c0 -11 4 -22 9 -25 5 -3 29 -46 54 -95 45 -88 46 -89 40
-165 l-6 -76 35 0 36 0 7 77 c7 76 8 79 76 169 38 51 69 97 69 103 0 6 -17 11
-39 11 -45 0 -56 -10 -102 -97 -18 -34 -48 -30 -55 7 -4 16 -13 35 -20 41 -8
6 -14 17 -14 24 0 20 -35 45 -63 45 -20 0 -27 -5 -27 -19z"/>
<path d="M2139 5321 c-13 -10 -54 -32 -92 -49 -48 -22 -70 -38 -77 -57 -22
-58 -1 -72 55 -35 17 11 53 27 82 36 58 18 86 50 81 91 -4 34 -19 38 -49 14z"/>
<path d="M2232 5224 c-20 -19 -59 -48 -85 -65 -42 -25 -46 -31 -37 -49 6 -11
21 -20 34 -20 23 0 66 -37 66 -58 0 -6 11 -36 25 -67 19 -44 32 -59 59 -70 67
-28 89 12 38 70 -21 23 -31 47 -35 84 -3 29 -16 68 -28 88 l-22 35 32 30 c17
16 31 36 31 44 0 26 -41 15 -78 -22z"/>
<path d="M1820 3910 c-12 -8 -9 -10 13 -10 15 0 27 5 27 10 0 13 -20 13 -40 0z"/>
<path d="M4135 5523 c-11 -3 -24 -10 -30 -16 -14 -17 -82 -47 -105 -47 -10 0
-49 -16 -87 -35 -54 -28 -80 -35 -125 -35 -59 0 -72 -7 -62 -34 10 -26 41 -28
168 -12 65 8 124 12 132 9 7 -2 20 -16 29 -29 16 -24 16 -24 45 -7 43 25 88
100 96 161 6 50 6 52 -17 51 -13 -1 -33 -3 -44 -6z"/>
<path d="M4607 4884 c-3 -4 -26 -8 -49 -9 -68 -4 -149 -23 -167 -38 -45 -39
-61 -40 -101 -8 -22 17 -43 31 -49 31 -10 0 -31 -61 -31 -90 0 -8 9 -30 20
-48 11 -18 20 -41 20 -51 0 -28 -57 -101 -80 -101 -26 0 -87 -68 -117 -131
-20 -41 -23 -58 -16 -83 l9 -31 86 0 c67 0 90 -4 105 -17 22 -21 98 -35 107
-20 3 6 -4 23 -17 39 -28 33 -25 53 8 53 18 0 24 7 29 34 4 18 15 41 26 51 43
39 59 150 35 232 -6 17 -3 24 11 29 11 3 49 20 87 37 66 30 107 74 107 113 0
14 -12 19 -23 8z"/>
<path d="M4719 4728 c-13 -24 -5 -124 13 -145 6 -7 23 -13 39 -13 l29 0 0 84
c0 67 -3 85 -16 90 -30 11 -53 6 -65 -16z"/>
<path d="M3917 4394 c-8 -8 1 -24 14 -24 5 0 9 7 9 15 0 15 -12 20 -23 9z"/>
<path d="M4346 4165 c-22 -22 -23 -123 -1 -132 32 -11 53 24 51 85 -1 62 -19
78 -50 47z"/>
<path d="M4728 4073 c-32 -2 -58 -7 -58 -11 0 -17 59 -40 119 -47 48 -6 68
-13 84 -31 37 -42 117 -25 117 26 0 22 -52 42 -87 34 -15 -4 -30 -1 -41 9 -21
19 -61 24 -134 20z"/>
<path d="M4845 3455 c-26 -8 -33 -13 -19 -14 34 -2 84 11 84 20 0 12 -16 10
-65 -6z"/>
<path d="M610 3431 c0 -9 54 -58 104 -96 15 -11 42 -32 60 -47 19 -16 36 -28
39 -28 4 0 23 -11 43 -25 20 -14 45 -25 55 -25 14 0 8 11 -24 46 -23 25 -55
53 -70 61 -33 17 -144 99 -152 114 -8 11 -55 12 -55 0z"/>
<path d="M1165 3240 c-3 -5 3 -18 15 -30 34 -34 52 -22 30 21 -11 20 -35 25
-45 9z"/>
<path d="M940 3203 c0 -5 6 -18 14 -29 17 -22 35 -11 20 13 -12 19 -34 29 -34
16z"/>
<path d="M1287 3142 c-23 -3 -26 -6 -16 -18 6 -8 16 -14 21 -14 6 0 27 -13 47
-28 49 -39 59 -44 65 -33 7 11 -35 57 -62 65 -11 4 -22 12 -24 19 -2 7 -15 11
-31 9z"/>
<path d="M8357 3143 c-17 -4 -21 -25 -4 -24 4 1 16 1 27 1 11 0 20 7 20 15 0
15 -9 17 -43 8z"/>
<path d="M6085 3131 c-40 -7 -95 -47 -95 -70 0 -13 21 -23 115 -50 55 -17 77
-19 105 -11 43 12 40 13 40 -4 0 -19 88 -28 120 -11 28 14 80 17 80 4 0 -5
-14 -12 -30 -16 -44 -11 -41 -27 4 -31 22 -2 45 -10 50 -17 10 -12 50 -19 99
-16 18 1 25 31 7 31 -13 0 -13 33 0 46 14 14 -38 83 -69 91 -14 3 -31 10 -37
14 -6 5 -33 8 -60 8 -27 0 -76 6 -108 15 -32 9 -69 13 -82 10 -15 -4 -24 -2
-24 5 0 12 -50 13 -115 2z"/>
<path d="M1432 3039 c2 -7 10 -15 17 -17 8 -3 12 1 9 9 -2 7 -10 15 -17 17 -8
3 -12 -1 -9 -9z"/>
<path d="M1480 2995 c0 -9 11 -20 25 -25 14 -5 25 -13 25 -18 0 -4 20 -20 44
-36 24 -15 56 -41 72 -57 15 -16 33 -29 39 -29 6 0 26 -16 45 -35 19 -19 38
-35 43 -35 5 0 22 -14 39 -31 17 -16 44 -33 60 -36 16 -3 34 -13 41 -22 14
-19 177 -101 200 -101 9 0 19 -5 22 -10 11 -18 86 -52 101 -46 10 4 12 14 8
31 -4 15 -1 32 7 41 10 12 9 18 -4 32 -15 14 -22 15 -49 4 -17 -6 -34 -9 -37
-7 -2 3 1 5 7 5 7 0 12 9 12 20 0 15 -14 27 -52 44 -82 37 -161 68 -188 74
-14 2 -28 11 -33 18 -12 20 -67 44 -103 44 -18 0 -36 5 -39 10 -3 6 -1 10 4
10 6 0 11 5 11 11 0 6 -8 8 -19 4 -22 -7 -91 23 -91 40 0 14 -78 65 -112 72
-14 3 -28 14 -31 24 -6 23 -47 26 -47 4z"/>
<path d="M1260 2965 c0 -8 5 -15 10 -15 6 0 10 7 10 15 0 8 -4 15 -10 15 -5 0
-10 -7 -10 -15z"/>
<path d="M1310 2920 c0 -5 9 -10 21 -10 11 0 17 5 14 10 -3 6 -13 10 -21 10
-8 0 -14 -4 -14 -10z"/>
<path d="M1410 2854 c0 -16 15 -30 107 -102 85 -67 133 -89 133 -60 0 24 -139
145 -173 151 -18 3 -40 8 -49 12 -10 4 -18 3 -18 -1z"/>
<path d="M1654 2669 c-10 -16 151 -167 203 -191 24 -10 47 -28 53 -38 6 -11
17 -20 26 -20 8 0 49 -36 92 -81 42 -44 106 -102 141 -127 36 -26 94 -71 130
-100 36 -30 82 -62 101 -72 19 -10 64 -44 100 -75 36 -32 88 -77 115 -102 28
-24 55 -48 60 -52 6 -5 51 -53 100 -107 50 -54 106 -115 125 -136 156 -169
319 -359 390 -453 37 -50 81 -102 98 -117 17 -14 58 -59 92 -99 34 -41 71 -77
81 -81 10 -4 19 -14 19 -22 0 -8 6 -19 13 -23 7 -4 25 -26 40 -48 69 -100 89
-125 100 -125 7 0 23 -3 37 -7 l25 -6 -19 22 c-11 12 -20 31 -21 41 -1 11 -9
28 -18 38 -49 51 -83 99 -107 150 -15 31 -44 73 -64 91 -20 19 -36 40 -36 45
0 23 -208 268 -359 424 -39 39 -71 76 -71 82 0 5 -12 15 -27 22 -15 7 -33 24
-40 38 -14 29 -64 77 -178 174 -76 65 -127 113 -211 199 -21 20 -41 37 -46 37
-4 0 -34 26 -67 58 -91 89 -152 142 -162 142 -6 0 -31 22 -57 48 -26 27 -62
56 -79 65 -18 10 -48 25 -65 34 -18 9 -35 20 -38 24 -3 4 -25 18 -50 31 -35
18 -44 29 -42 45 2 16 -10 29 -60 59 -35 21 -76 51 -91 66 -16 15 -34 28 -41
28 -19 0 -88 68 -81 80 6 10 -34 33 -77 44 -16 3 -30 1 -34 -5z"/>
<path d="M4545 2670 c44 -11 67 -11 60 0 -3 6 -25 9 -48 9 -40 -1 -40 -2 -12
-9z"/>
<path d="M4655 2640 c45 -12 97 -12 90 0 -3 6 -32 9 -63 9 -47 -1 -52 -3 -27
-9z"/>
<path d="M4803 2613 c9 -2 25 -2 35 0 9 3 1 5 -18 5 -19 0 -27 -2 -17 -5z"/>
<path d="M4910 2588 c0 -8 101 -15 106 -6 2 3 -21 8 -51 10 -30 1 -55 0 -55
-4z"/>
<path d="M7425 2426 c-178 -74 -485 -225 -485 -239 0 -13 54 -2 158 34 48 17
107 34 132 40 25 5 85 23 133 39 93 31 156 37 220 19 43 -12 56 -32 34 -53
-22 -23 -178 -107 -217 -118 -19 -6 -89 -21 -155 -34 -66 -13 -140 -29 -165
-35 -25 -7 -65 -15 -90 -19 -25 -4 -70 -13 -100 -19 -134 -26 -243 -41 -347
-47 -62 -4 -110 -10 -108 -14 10 -16 131 -21 235 -11 137 14 254 33 365 60 50
12 122 25 160 28 139 11 311 70 432 150 57 37 73 58 73 97 0 28 -41 66 -74 67
-31 1 -80 33 -85 55 -3 17 -19 34 -31 33 -3 0 -41 -15 -85 -33z"/>
<path d="M2340 2440 c0 -5 9 -10 20 -10 11 0 20 5 20 10 0 6 -9 10 -20 10 -11
0 -20 -4 -20 -10z"/>
<path d="M2480 2362 c0 -14 59 -62 76 -62 8 0 29 -7 46 -16 16 -9 56 -22 87
-30 31 -8 60 -19 66 -25 12 -12 66 -12 85 1 10 6 20 4 33 -7 13 -13 20 -14 29
-5 10 10 5 19 -19 44 -39 39 -126 67 -208 68 -33 1 -78 8 -100 16 -55 22 -95
28 -95 16z"/>
<path d="M4620 2353 c0 -11 9 -31 19 -45 11 -13 23 -42 26 -64 4 -21 12 -44
17 -50 9 -12 35 -101 49 -169 4 -22 12 -60 18 -85 22 -96 7 -302 -24 -340 -44
-53 -59 -144 -30 -174 8 -8 15 -25 15 -39 0 -49 23 -144 46 -192 32 -68 84
-210 94 -260 5 -22 22 -80 39 -130 17 -49 36 -112 43 -138 13 -51 40 -77 55
-55 15 24 28 46 46 77 10 18 36 55 57 84 23 30 40 63 40 78 0 15 7 32 15 39
14 11 13 14 -2 25 -15 11 -15 15 -4 29 10 11 11 29 6 59 -4 23 -12 82 -18 130
-13 94 -29 120 -67 110 -20 -5 -33 14 -44 68 -8 37 -55 49 -75 20 -17 -27 -47
-27 -61 -1 -6 11 -17 20 -24 20 -22 0 -25 23 -19 147 7 137 -10 374 -33 453
-58 206 -123 368 -163 404 -21 19 -21 19 -21 -1z"/>
<path d="M1730 2219 c14 -11 41 -28 60 -39 19 -10 55 -37 80 -60 25 -23 69
-53 98 -66 36 -16 88 -58 163 -131 62 -60 117 -114 123 -122 6 -8 63 -69 127
-135 201 -209 253 -271 375 -446 87 -124 117 -180 125 -230 12 -81 72 -228
121 -296 26 -36 122 -103 133 -92 5 5 -24 89 -35 103 -4 5 -14 39 -21 75 -7
36 -18 72 -24 80 -21 27 -46 107 -39 125 5 11 1 21 -9 27 -10 5 -17 20 -17 34
0 14 -9 39 -20 54 -11 16 -27 48 -35 71 -9 23 -24 49 -35 56 -11 8 -20 25 -20
38 0 13 -13 40 -30 58 -16 19 -30 41 -30 49 0 7 -13 29 -30 48 -16 19 -29 39
-30 43 -1 24 -181 249 -259 324 -107 103 -421 336 -495 367 -35 15 -37 14 -45
-6 -5 -14 -10 -17 -15 -10 -4 7 -15 12 -24 12 -9 0 -37 14 -61 30 -24 17 -54
30 -66 30 -11 0 -30 7 -41 15 -30 23 -53 18 -24 -6z"/>
<path d="M5816 2135 c-21 -7 -48 -22 -59 -33 -26 -23 -74 -34 -141 -33 -52 1
-76 -11 -76 -38 0 -14 -7 -17 -30 -13 -26 4 -37 -2 -71 -38 -54 -57 -79 -117
-79 -190 0 -51 3 -61 26 -79 70 -55 314 -47 599 21 94 22 213 49 265 60 109
24 140 45 140 94 0 17 6 47 14 65 13 30 12 37 -4 70 -11 20 -29 39 -42 43 -91
27 -137 36 -221 45 -52 5 -109 17 -126 25 -37 19 -140 20 -195 1z"/>
<path d="M1680 1890 c0 -5 10 -12 22 -16 13 -4 27 -13 33 -20 5 -7 47 -29 93
-49 46 -20 109 -52 142 -71 32 -19 61 -34 65 -34 14 0 254 -126 265 -139 3 -4
16 -11 31 -18 14 -6 60 -39 103 -74 112 -92 126 -102 126 -91 0 5 -10 20 -22
34 -13 13 -50 55 -83 93 -128 146 -333 283 -505 335 -41 13 -93 31 -115 41
-42 18 -155 25 -155 9z"/>
<path d="M2610 1302 c0 -7 9 -23 21 -35 12 -12 26 -34 31 -49 6 -16 14 -28 19
-28 5 0 9 -13 9 -29 0 -17 4 -32 9 -36 5 -3 13 -20 17 -37 12 -56 83 -148 114
-148 13 0 -7 72 -29 100 -11 15 -27 44 -35 65 -9 21 -32 55 -51 76 -19 22 -35
43 -35 47 0 5 -16 26 -35 48 -19 21 -35 33 -35 26z"/>
<path d="M5609 1105 c-13 -19 -28 -35 -32 -35 -15 0 -97 -88 -97 -104 0 -14
-45 -73 -109 -141 -15 -16 -40 -52 -56 -80 -15 -27 -37 -60 -49 -73 -11 -13
-20 -25 -18 -28 11 -19 -41 -74 -65 -68 -25 6 -69 -32 -55 -49 7 -8 5 -19 -9
-35 -22 -28 -53 -25 -57 6 -5 31 -27 28 -52 -8 -18 -26 -20 -35 -11 -63 7 -21
9 -101 6 -225 -4 -148 -2 -194 8 -198 7 -2 176 -3 377 -2 l365 3 -37 38 c-43
42 -41 42 -72 22 -22 -15 -24 -14 -55 46 -22 42 -30 70 -26 86 5 20 2 23 -22
23 -16 0 -35 0 -43 1 -8 1 -21 0 -29 -2 -9 -2 -17 5 -19 16 -2 11 -26 43 -53
72 -53 56 -58 75 -31 123 17 31 17 31 -10 53 -34 28 -35 44 -3 87 14 19 25 39
25 46 0 7 10 21 23 31 12 10 21 26 19 35 -2 10 8 24 22 34 14 9 26 22 26 29 0
8 13 23 28 34 24 17 28 25 24 57 -3 27 0 39 13 46 9 6 24 26 32 46 8 20 24 48
35 62 44 58 69 104 66 124 -5 34 -33 30 -59 -9z"/>
<path d="M3170 925 c0 -8 7 -15 15 -15 8 0 15 7 15 15 0 8 -7 15 -15 15 -8 0
-15 -7 -15 -15z"/>
<path d="M3160 880 c0 -9 7 -26 16 -38 8 -12 19 -47 24 -78 5 -30 19 -72 32
-92 24 -39 44 -87 57 -137 4 -16 17 -48 28 -70 11 -22 18 -47 16 -56 -2 -8 5
-24 17 -34 12 -10 20 -31 20 -49 1 -42 17 -68 67 -108 56 -44 127 -128 150
-177 l18 -40 68 -1 c49 0 67 4 67 13 0 8 -20 45 -45 83 -25 39 -45 81 -45 97
0 19 -7 31 -25 39 -14 6 -25 18 -25 26 0 8 -11 36 -25 64 -14 27 -25 58 -25
68 0 10 -11 25 -25 34 -17 11 -25 26 -25 46 0 20 -8 35 -29 49 -19 14 -30 32
-34 56 -3 19 -16 49 -29 65 -13 17 -33 43 -46 59 -12 16 -20 35 -17 43 3 8
-13 31 -37 53 -24 22 -51 53 -61 68 -18 28 -52 36 -60 15 -4 -10 -8 -9 -16 2
-9 13 -11 13 -11 0z"/>
<path d="M5575 747 c-24 -18 -11 -37 26 -37 22 0 29 5 29 19 0 10 -7 22 -16
25 -20 8 -17 8 -39 -7z"/>
<path d="M5872 588 c5 -15 68 -24 68 -10 0 12 -24 22 -52 22 -11 0 -18 -5 -16
-12z"/>
<path d="M6824 448 c-4 -6 2 -22 13 -36 11 -15 26 -43 33 -62 12 -34 53 -65
71 -54 5 3 9 21 9 40 0 26 -5 37 -24 45 -13 6 -29 25 -37 42 -14 32 -52 46
-65 25z"/>
<path d="M6980 256 c0 -8 5 -18 10 -21 6 -3 10 -15 10 -26 0 -11 10 -33 21
-49 13 -16 19 -36 15 -45 -4 -11 4 -21 25 -33 17 -9 47 -32 67 -49 28 -27 43
-33 78 -33 34 0 42 3 38 15 -4 8 -9 15 -13 15 -4 0 -17 17 -28 38 -12 20 -34
48 -48 62 -15 14 -30 32 -34 41 -7 20 -110 99 -128 99 -7 0 -13 -6 -13 -14z"/>
<path d="M6405 160 c-8 -12 20 -24 35 -15 6 3 8 11 5 16 -8 12 -32 12 -40 -1z"/>
<path d="M6122 97 c-18 -18 -32 -40 -32 -48 0 -9 -12 -22 -27 -30 -26 -13 -18
-14 96 -17 68 -1 126 0 129 2 3 3 1 29 -4 58 l-9 53 -42 -3 c-23 -1 -44 2 -48
8 -11 18 -30 11 -63 -23z"/>
<path d="M39 93 c-3 -20 -6 -30 -17 -56 -16 -38 -17 -37 28 -37 45 0 44 -1 28
37 -7 15 -12 34 -12 42 -1 15 -25 28 -27 14z"/>
<path d="M159 93 c-3 -20 -6 -30 -17 -56 -16 -38 -17 -37 28 -37 45 0 44 -1
28 37 -7 15 -12 34 -12 42 -1 15 -25 28 -27 14z"/>
<path d="M6343 74 c-15 -39 38 -67 60 -32 8 12 7 21 -2 32 -17 21 -50 20 -58
0z"/>
<path d="M234 23 c-17 -17 -16 -18 20 -21 46 -4 58 5 32 24 -25 18 -31 18 -52
-3z"/>
</g>
</svg>
